<svg id="Layer_10" enable-background="new 0 0 512 512" height="512" viewBox="0 0 512 512" width="512" xmlns="http://www.w3.org/2000/svg" fill="#ffffff"><path clip-rule="evenodd" d="m448.014 512h-256.008c-35.36 0-64.01-28.656-64.01-64v-16.001c0-8.844 7.156-16 16-16 8.829 0 16.008 7.156 16.008 16v16.001c0 17.672 14.313 31.992 32.001 31.992h256.008c17.665 0 32.001-14.32 32.001-31.992v-256.01c0-17.672-14.336-31.989-32.001-31.989h-256.007c-17.688 0-32.001 14.317-32.001 31.989v152.001c0 22.102-17.907 40.008-40.009 40.008h-56.01c-35.337 0-63.986-28.656-63.986-64.017v-255.993c0-35.341 28.649-63.989 63.986-63.989h240.024c8.82 0 16 7.156 16 15.984 0 8.844-7.18 16-16 16h-240.024c-17.672 0-31.985 14.336-31.985 32.004v255.994c0 17.688 14.313 32.009 31.985 32.009h52.009c6.641 0 12-5.367 12-12v-148.001c0-35.34 28.649-63.989 64.01-63.989h256.008c35.337 0 63.986 28.648 63.986 63.989v256.01c.001 35.344-28.648 64-63.985 64zm-80.018-448.011c-8.821 0-16.001-7.156-16.001-16 0-8.824 7.18-16.004 16.001-16.004 8.844 0 16.008 7.18 16.008 16.004 0 8.844-7.164 16-16.008 16z" fill-rule="evenodd"/></svg>