<?xml version="1.0" encoding="UTF-8" standalone="no"?>
<!-- Created with Inkscape (http://www.inkscape.org/) -->

<svg
   version="1.1"
   id="svg597"
   xml:space="preserve"
   width="682.66669"
   height="682.66669"
   viewBox="0 0 682.66669 682.66669"
   xmlns="http://www.w3.org/2000/svg"
   xmlns:svg="http://www.w3.org/2000/svg"><defs
     id="defs601"><clipPath
       clipPathUnits="userSpaceOnUse"
       id="clipPath611"><path
         d="M 0,512 H 512 V 0 H 0 Z"
         id="path609" /></clipPath></defs><g
     id="g603"
     transform="matrix(1.3333333,0,0,-1.3333333,0,682.66667)"><g
       id="g605"><g
         id="g607"
         clip-path="url(#clipPath611)"><g
           id="g613"
           transform="translate(15,256)"><path
             d="M 0,0 C 0,-132.548 108.452,-241 241,-241 373.548,-241 482,-132.548 482,0 482,132.548 373.548,241 241,241 108.452,241 0,132.548 0,0 Z"
             style="fill:none;stroke:#000000;stroke-width:30;stroke-linecap:round;stroke-linejoin:round;stroke-miterlimit:10;stroke-dasharray:none;stroke-opacity:1"
             id="path615" /></g><g
           id="g617"
           transform="translate(192.8384,328.2974)"><path
             d="m 0,0 c -20.126,-17.598 -32.838,-43.463 -32.838,-72.297 0,-53.02 42.98,-96 96,-96 53.019,0 96,42.98 96,96 0,28.578 -12.488,54.239 -32.304,71.826"
             style="fill:none;stroke:#000000;stroke-width:30;stroke-linecap:round;stroke-linejoin:round;stroke-miterlimit:10;stroke-dasharray:none;stroke-opacity:1"
             id="path619" /></g><g
           id="g621"
           transform="translate(256,376)"><path
             d="M 0,0 V -80"
             style="fill:none;stroke:#000000;stroke-width:30;stroke-linecap:round;stroke-linejoin:round;stroke-miterlimit:10;stroke-dasharray:none;stroke-opacity:1"
             id="path623" /></g></g></g></g></svg>
